<svg width="32" height="32" viewBox="0 0 32 32" fill="none" xmlns="http://www.w3.org/2000/svg">
<rect x="0.285714" y="0.285745" width="31.4286" height="31.4286" rx="7.71429" fill="white"/>
<rect x="0.285714" y="0.285745" width="31.4286" height="31.4286" rx="7.71429" stroke="#E8D0EF" stroke-width="0.571429"/>
<path d="M13.5 9.75003V12.25M18.5 9.75003V12.25M10.375 14.75H21.625M13.375 22.25H18.625C19.6751 22.25 20.2001 22.25 20.6012 22.0457C20.954 21.8659 21.2409 21.5791 21.4206 21.2263C21.625 20.8252 21.625 20.3001 21.625 19.25V14C21.625 12.9499 21.625 12.4249 21.4206 12.0238C21.2409 11.671 20.954 11.3842 20.6012 11.2044C20.2001 11 19.6751 11 18.625 11H13.375C12.3249 11 11.7999 11 11.3988 11.2044C11.046 11.3842 10.7591 11.671 10.5794 12.0238C10.375 12.4249 10.375 12.9499 10.375 14V19.25C10.375 20.3001 10.375 20.8252 10.5794 21.2263C10.7591 21.5791 11.046 21.8659 11.3988 22.0457C11.7999 22.25 12.3249 22.25 13.375 22.25Z" stroke="black" stroke-width="1.1" stroke-linecap="round" stroke-linejoin="round"/>
</svg>
