<svg width="16" height="16" viewBox="0 0 16 16" fill="none" xmlns="http://www.w3.org/2000/svg">
<path d="M8.625 3.43359H3.625C2.58947 3.43359 1.75 4.27306 1.75 5.30859V11.5586C1.75 12.5941 2.58947 13.4336 3.625 13.4336H12.375C13.4105 13.4336 14.25 12.5941 14.25 11.5586V8.43359M2.6875 4.42447L7.39686 8.57979C7.74385 8.88595 8.26232 8.89315 8.61767 8.59672L9.5625 7.80856M14.25 4.68359C14.25 5.71913 13.4105 6.55859 12.375 6.55859C11.3395 6.55859 10.5 5.71913 10.5 4.68359C10.5 3.64806 11.3395 2.80859 12.375 2.80859C13.4105 2.80859 14.25 3.64806 14.25 4.68359Z" stroke="black" stroke-width="1.1" stroke-linecap="round" stroke-linejoin="round"/>
</svg>
