<svg width="12" height="15" viewBox="0 0 12 15" fill="none" xmlns="http://www.w3.org/2000/svg">
<path d="M7.25 1.61446V4.2793C7.25 4.79706 7.66973 5.2168 8.1875 5.2168H10.9287M6.08305 1.4668H4C2.9499 1.4668 2.42485 1.4668 2.02377 1.67116C1.67096 1.85092 1.38413 2.13776 1.20436 2.49056C1 2.89165 1 3.4167 1 4.4668V10.9668C1 12.0169 1 12.5419 1.20436 12.943C1.38413 13.2958 1.67096 13.5827 2.02377 13.7624C2.42485 13.9668 2.9499 13.9668 4 13.9668H8C9.0501 13.9668 9.57515 13.9668 9.97623 13.7624C10.329 13.5827 10.6159 13.2958 10.7956 12.943C11 12.5419 11 12.0169 11 10.9668V6.224C11 5.73786 11 5.49479 10.9423 5.26767C10.8912 5.06637 10.807 4.87496 10.6932 4.70126C10.5647 4.50529 10.3855 4.34104 10.0272 4.01254L8.11022 2.25533C7.79219 1.96381 7.63318 1.81804 7.45127 1.71404C7.28995 1.62181 7.11581 1.55407 6.93456 1.51305C6.73019 1.4668 6.51448 1.4668 6.08305 1.4668ZM5.56479 7.15851L4.86334 7.37771C4.5982 7.46057 4.46563 7.502 4.36745 7.58192C4.28076 7.65249 4.2135 7.74398 4.172 7.84776C4.125 7.96532 4.125 8.10421 4.125 8.382V8.5745C4.125 9.08868 4.125 9.34577 4.18062 9.58794C4.2372 9.83432 4.33598 10.0691 4.47258 10.2818C4.60684 10.4909 4.79066 10.6706 5.15829 11.0301C5.40191 11.2683 5.52371 11.3874 5.66218 11.4357C5.80235 11.4845 5.95492 11.4845 6.09508 11.4357C6.23355 11.3874 6.35536 11.2683 6.59897 11.0301C6.9666 10.6706 7.15042 10.4909 7.28469 10.2818C7.42129 10.0691 7.52006 9.83432 7.57665 9.58794C7.63226 9.34577 7.63226 9.08868 7.63226 8.5745V8.382C7.63226 8.10421 7.63226 7.96532 7.58526 7.84776C7.54376 7.74398 7.4765 7.65249 7.38982 7.58192C7.29164 7.502 7.15907 7.46057 6.89392 7.37771L6.19247 7.15851C6.07588 7.12208 6.01759 7.10386 5.95811 7.09662C5.90532 7.09019 5.85194 7.09019 5.79915 7.09662C5.73967 7.10386 5.68138 7.12208 5.56479 7.15851Z" stroke="black" stroke-width="1.1" stroke-linecap="round" stroke-linejoin="round"/>
</svg>
