<svg width="16" height="16" viewBox="0 0 16 16" fill="none" xmlns="http://www.w3.org/2000/svg">
<path d="M3.98681 12.4505H3.99307M12.0239 4.43722H12.0302M3.99307 10.8333L4.42987 12.0137L5.61031 12.4505L4.42987 12.8873L3.99307 14.0678L3.55627 12.8873L2.37583 12.4505L3.55627 12.0137L3.99307 10.8333ZM4.30004 12.4505C4.30004 12.6235 4.1598 12.7638 3.98681 12.7638C3.81381 12.7638 3.67357 12.6235 3.67357 12.4505C3.67357 12.2775 3.81381 12.1373 3.98681 12.1373C4.1598 12.1373 4.30004 12.2775 4.30004 12.4505ZM12.0302 2.81998L12.467 4.00042L13.6474 4.43722L12.467 4.87403L12.0302 6.05446L11.5934 4.87403L10.4129 4.43722L11.5934 4.00042L12.0302 2.81998ZM12.3372 4.43722C12.3372 4.61022 12.1969 4.75046 12.0239 4.75046C11.8509 4.75046 11.7107 4.61022 11.7107 4.43722C11.7107 4.26423 11.8509 4.12398 12.0239 4.12398C12.1969 4.12398 12.3372 4.26423 12.3372 4.43722ZM3.53598 4.17577L2.23248 4.86686C1.96216 5.01018 1.827 5.08184 1.78279 5.1774C1.74428 5.26064 1.74428 5.35659 1.78279 5.43983C1.827 5.53539 1.96216 5.60705 2.23248 5.75037L3.53598 6.44146C3.58638 6.46818 3.61158 6.48154 3.63359 6.49885C3.65313 6.51421 3.67077 6.53184 3.68613 6.55138C3.70344 6.5734 3.7168 6.5986 3.74352 6.649L4.43461 7.9525C4.57793 8.22282 4.64959 8.35798 4.74515 8.40219C4.82839 8.4407 4.92434 8.4407 5.00758 8.40219C5.10314 8.35798 5.1748 8.22282 5.31812 7.9525L6.00921 6.649C6.03593 6.5986 6.04929 6.5734 6.0666 6.55138C6.08196 6.53184 6.09959 6.51421 6.11913 6.49885C6.14115 6.48154 6.16635 6.46818 6.21675 6.44146L7.52025 5.75037C7.79057 5.60705 7.92573 5.53539 7.96994 5.43983C8.00845 5.35659 8.00845 5.26064 7.96994 5.1774C7.92573 5.08184 7.79057 5.01018 7.52025 4.86686L6.21675 4.17577C6.16635 4.14905 6.14115 4.13569 6.11913 4.11838C6.09959 4.10302 6.08196 4.08539 6.0666 4.06585C6.04929 4.04383 6.03593 4.01863 6.00921 3.96823L5.31812 2.66473C5.1748 2.39441 5.10314 2.25925 5.00758 2.21504C4.92434 2.17653 4.82839 2.17653 4.74515 2.21504C4.64959 2.25925 4.57793 2.39441 4.43461 2.66473L3.74352 3.96823C3.7168 4.01863 3.70344 4.04383 3.68613 4.06585C3.67077 4.08539 3.65313 4.10302 3.63359 4.11838C3.61158 4.13569 3.58638 4.14905 3.53598 4.17577ZM9.81644 10.4334L8.51295 11.1245C8.24262 11.2678 8.10746 11.3395 8.06325 11.435C8.02474 11.5183 8.02474 11.6142 8.06325 11.6975C8.10746 11.793 8.24262 11.8647 8.51295 12.008L9.81644 12.6991C9.86684 12.7258 9.89205 12.7392 9.91406 12.7565C9.9336 12.7718 9.95124 12.7895 9.9666 12.809C9.9839 12.831 9.99726 12.8562 10.024 12.9066L10.7151 14.2101C10.8584 14.4804 10.9301 14.6156 11.0256 14.6598C11.1089 14.6983 11.2048 14.6983 11.288 14.6598C11.3836 14.6156 11.4553 14.4804 11.5986 14.2101L12.2897 12.9066C12.3164 12.8562 12.3298 12.831 12.3471 12.809C12.3624 12.7895 12.3801 12.7718 12.3996 12.7565C12.4216 12.7392 12.4468 12.7258 12.4972 12.6991L13.8007 12.008C14.071 11.8647 14.2062 11.793 14.2504 11.6975C14.2889 11.6142 14.2889 11.5183 14.2504 11.435C14.2062 11.3395 14.071 11.2678 13.8007 11.1245L12.4972 10.4334C12.4468 10.4067 12.4216 10.3933 12.3996 10.376C12.3801 10.3606 12.3624 10.343 12.3471 10.3235C12.3298 10.3015 12.3164 10.2763 12.2897 10.2259L11.5986 8.92236C11.4553 8.65204 11.3836 8.51688 11.288 8.47267C11.2048 8.43416 11.1089 8.43416 11.0256 8.47267C10.9301 8.51688 10.8584 8.65204 10.7151 8.92236L10.024 10.2259C9.99726 10.2763 9.9839 10.3015 9.9666 10.3235C9.95124 10.343 9.9336 10.3606 9.91406 10.376C9.89205 10.3933 9.86684 10.4067 9.81644 10.4334Z" stroke="black" stroke-width="1.1" stroke-linecap="round" stroke-linejoin="round"/>
</svg>
